<svg width="56" height="35" viewBox="0 0 56 35" fill="none" xmlns="http://www.w3.org/2000/svg" opacity="0.3">
<path d="M27.9255 4.17867C27.7031 4.35361 27.4855 4.53378 27.2723 4.71917C23.6355 7.88349 21.3334 12.5419 21.3334 17.7409C21.3334 22.9401 23.6355 27.5985 27.2723 30.7628C27.4855 30.9482 27.7031 31.1283 27.9255 31.3034C28.1478 31.1283 28.3656 30.9482 28.5785 30.7628C32.2156 27.5985 34.5173 22.9401 34.5173 17.7409C34.5173 12.5419 32.2156 7.88349 28.5785 4.71917C28.3656 4.53378 28.1478 4.35361 27.9255 4.17867ZM38.5918 0.482338C35.0585 0.482338 31.7736 1.54453 29.0377 3.36669C29.1775 3.48146 29.3192 3.59422 29.4548 3.71201C33.5211 7.24956 35.8525 12.3628 35.8525 17.7409C35.8525 23.1191 33.5211 28.2326 29.4551 31.7699C29.3201 31.8872 29.1778 32.0006 29.0376 32.1155C31.7736 33.9372 35.0585 34.9998 38.5918 34.9998C48.1236 34.9998 55.8508 27.2728 55.8508 17.7413C55.8508 8.20916 48.1236 0.482338 38.5918 0.482338ZM26.3961 31.7699C26.5309 31.8872 26.6732 32.0005 26.8133 32.1155C24.0775 33.9376 20.7924 35 17.2589 35C7.72682 35 0 27.2728 0 17.7411C0 8.20935 7.72682 0.482143 17.2589 0.482143C20.7924 0.482143 24.0773 1.54453 26.8131 3.36649C26.6732 3.48131 26.5317 3.59402 26.3961 3.71181C22.33 7.24956 19.9984 12.3628 19.9984 17.7409C19.9984 23.1195 22.33 28.2328 26.3961 31.7699ZM55.3119 28.4358V27.7659H55.1369L54.936 28.2266L54.7347 27.7659H54.5597V28.4358H54.6829V27.9303L54.8718 28.3661H54.9998L55.1882 27.9294V28.4358H55.3119ZM54.204 28.4358V27.8801H54.4283V27.767H53.8578V27.8801H54.0817V28.4358H54.204Z" fill="white"/>
</svg>
