<svg width="72" height="24" viewBox="0 0 72 24" fill="none" xmlns="http://www.w3.org/2000/svg" opacity="0.3">
<path d="M35.5905 1.19682L30.7876 23.65H24.9794L29.7841 1.19682H35.5905ZM60.0278 15.6941L63.0849 7.26375L64.8443 15.6941H60.0278ZM66.5085 23.65H71.8805L67.1913 1.19682H62.2331C61.1181 1.19682 60.1779 1.84581 59.7613 2.84413L51.0453 23.65H57.1442L58.3554 20.296H65.8073L66.5085 23.65ZM51.3485 16.3191C51.3732 10.3932 43.1541 10.0666 43.2106 7.41942C43.2282 6.61379 43.9954 5.75732 45.6743 5.53843C46.5066 5.42941 48.7997 5.34618 51.4005 6.5433L52.4206 1.78213C51.0232 1.27499 49.2251 0.78669 46.9875 0.78669C41.2465 0.78669 37.2063 3.83878 37.1721 8.2088C37.1351 11.4412 40.056 13.2449 42.2565 14.319C44.5203 15.419 45.2798 16.1257 45.2713 17.1097C45.2551 18.616 43.4657 19.281 41.7934 19.3069C38.8741 19.3518 37.18 18.5169 35.8293 17.889L34.7767 22.808C36.1338 23.4306 38.6388 23.9738 41.236 24.001C47.3382 24.001 51.3297 20.9869 51.3485 16.3191ZM27.2914 1.19682L17.8807 23.65H11.741L7.11003 5.7313C6.82876 4.62749 6.58456 4.22338 5.72951 3.75851C4.33357 3.00096 2.02795 2.29057 -0.000244141 1.84941L0.137564 1.19682H10.0209C11.2807 1.19682 12.4131 2.03547 12.6991 3.4863L15.1449 16.4789L21.1897 1.19682H27.2914Z" fill="white"/>
</svg>
